<svg width="16" height="17" viewBox="0 0 16 17" fill="none" xmlns="http://www.w3.org/2000/svg">
<g clip-path="url(#clip0_190_1679)">
<path d="M14.575 11.443L10.4367 1.43274C10.4035 1.35249 10.3515 1.2814 10.2851 1.22548C10.2186 1.16956 10.1397 1.13045 10.055 1.11147C9.97021 1.09121 9.88177 1.09213 9.79745 1.11413C9.71313 1.13614 9.63552 1.17855 9.57147 1.23764L4.10771 6.16382C4.09154 6.17847 4.08955 6.20126 4.07544 6.21744L1.35671 7.20929C1.22153 7.25859 1.11147 7.35956 1.05073 7.49C0.989983 7.62044 0.983529 7.76966 1.03279 7.90485L2.87242 12.9476C2.91058 13.0523 2.97996 13.1427 3.07118 13.2066C3.1624 13.2705 3.27105 13.3048 3.38243 13.305C3.44592 13.3051 3.50893 13.294 3.56852 13.2721L4.51756 12.9258L5.54333 15.7384C5.59218 15.8738 5.69282 15.9842 5.8231 16.0454C5.95338 16.1066 6.10264 16.1135 6.23803 16.0647C6.37343 16.0158 6.48387 15.9152 6.54506 15.7849C6.60626 15.6546 6.61319 15.5054 6.56434 15.37L6.56334 15.3673L5.53723 12.5539L6.48647 12.2075C6.49508 12.2043 6.50065 12.1972 6.509 12.1937H14.0735C14.1628 12.1938 14.2507 12.1718 14.3294 12.1297C14.4082 12.0876 14.4754 12.0268 14.525 11.9525C14.5746 11.8782 14.6051 11.7929 14.6138 11.704C14.6225 11.6152 14.6093 11.5255 14.575 11.443ZM3.70638 12.0665L2.23889 8.04374L4.13679 7.3503L5.60433 11.3731L3.70638 12.0665ZM6.66622 11.108L5.10491 6.7268L9.72734 2.55877L13.2619 11.108H6.66622Z" fill="#333333" stroke="#333333" stroke-width="0.5"/>
</g>
<defs>
<clipPath id="clip0_190_1679">
<rect width="16" height="16" fill="white" transform="translate(0 0.596924)"/>
</clipPath>
</defs>
</svg>
