<svg width="49" height="49" viewBox="0 0 49 49" fill="none" xmlns="http://www.w3.org/2000/svg">
<path d="M41.5094 16.714C40.5531 14.4546 39.1844 12.425 37.4406 10.6812C35.6969 8.93745 33.6672 7.5687 31.4078 6.61245C29.0641 5.62339 26.5797 5.12183 24.0156 5.12183C21.4516 5.12183 18.9672 5.62339 16.6234 6.61245C14.3641 7.5687 12.3344 8.93745 10.5906 10.6812C8.84688 12.425 7.47813 14.4546 6.52188 16.714C5.53281 19.0578 5.03125 21.5421 5.03125 24.1062C5.03125 27.8046 6.09531 31.3953 8.11094 34.4796C8.48125 35.0468 9.24062 35.2062 9.80781 34.8359C10.375 34.4656 10.5344 33.7062 10.1641 33.139C8.41094 30.4531 7.48281 27.3312 7.48281 24.1109C7.48281 14.9984 14.8984 7.58276 24.0109 7.58276C33.1234 7.58276 40.5437 14.9937 40.5437 24.1062C40.5437 33.2187 33.1281 40.6343 24.0156 40.6343C20.8375 40.6343 17.7484 39.7296 15.0906 38.0187C14.5188 37.6531 13.7594 37.8171 13.3937 38.389C13.0281 38.9609 13.1922 39.7203 13.7641 40.0859C16.8203 42.05 20.3641 43.0906 24.0156 43.0906C26.5797 43.0906 29.0641 42.589 31.4078 41.6C33.6672 40.6437 35.6969 39.275 37.4406 37.5312C39.1844 35.7875 40.5531 33.7578 41.5094 31.4984C42.4984 29.1593 43 26.6703 43 24.1062C43 21.5421 42.4984 19.0578 41.5094 16.714Z" fill="#ED7937"/>
<path d="M21.2547 31.3765L31.6938 25.3484C31.7547 25.3109 31.8157 25.2734 31.8672 25.2265C32.0032 25.1234 32.1251 24.9921 32.2141 24.8375C32.5704 24.2187 32.3594 23.4218 31.7407 23.0609L21.2266 16.9953C20.6829 16.6812 20.0032 16.8078 19.6 17.2625C19.3844 17.4968 19.2532 17.8062 19.2532 18.1437V30.214C19.2532 30.65 19.4688 31.0343 19.8016 31.2734C20.2094 31.5875 20.786 31.6484 21.2547 31.3765ZM21.8547 20.3562L28.4969 24.1906L21.8547 28.025V20.3562Z" fill="#ED7937"/>
</svg>
